<?xml version="1.0" encoding="UTF-8" standalone="no"?>
<!DOCTYPE svg PUBLIC "-//W3C//DTD SVG 1.1//EN"
 "http://www.w3.org/Graphics/SVG/1.1/DTD/svg11.dtd">
<!-- Generated by graphviz version 2.47.0 (20210316.0004)
 -->
<!-- Title: dependencies Pages: 1 -->
<svg width="1563pt" height="284pt"
 viewBox="0.00 0.00 1563.00 284.00" xmlns="http://www.w3.org/2000/svg" xmlns:xlink="http://www.w3.org/1999/xlink">
<g id="graph0" class="graph" transform="scale(1 1) rotate(0) translate(4 280)">
<title>dependencies</title>
<polygon fill="white" stroke="transparent" points="-4,4 -4,-280 1559,-280 1559,4 -4,4"/>
<text text-anchor="start" x="756.51" y="-42.4" font-family="Times-12" font-weight="bold" font-size="14.00">Legend</text>
<polygon fill="#ffffb3" stroke="transparent" points="543.5,-10 543.5,-30 563.5,-30 563.5,-10 543.5,-10"/>
<text text-anchor="start" x="567.13" y="-15.4" font-family="Times-12" font-size="14.00"> &#160;Declarations</text>
<polygon fill="#8dd3c7" stroke="transparent" points="656.5,-10 656.5,-30 676.5,-30 676.5,-10 656.5,-10"/>
<text text-anchor="start" x="680.23" y="-15.4" font-family="Times-12" font-size="14.00"> &#160;Module</text>
<polygon fill="#80b1d3" stroke="transparent" points="742.5,-10 742.5,-30 762.5,-30 762.5,-10 742.5,-10"/>
<text text-anchor="start" x="766.28" y="-15.4" font-family="Times-12" font-size="14.00"> &#160;Bootstrap</text>
<polygon fill="#fdb462" stroke="transparent" points="839.5,-10 839.5,-30 859.5,-30 859.5,-10 839.5,-10"/>
<text text-anchor="start" x="863.17" y="-15.4" font-family="Times-12" font-size="14.00"> &#160;Providers</text>
<polygon fill="#fb8072" stroke="transparent" points="935.5,-10 935.5,-30 955.5,-30 955.5,-10 935.5,-10"/>
<text text-anchor="start" x="959.23" y="-15.4" font-family="Times-12" font-size="14.00"> &#160;Exports</text>
<g id="clust1" class="cluster">
<title>cluster_AppModule</title>
<polygon fill="none" stroke="black" stroke-dasharray="1,5" points="8,-70 8,-268 1547,-268 1547,-70 8,-70"/>
</g>
<g id="clust2" class="cluster">
<title>cluster_AppModule_declarations</title>
<polygon fill="none" stroke="black" points="168,-78 168,-130 1539,-130 1539,-78 168,-78"/>
</g>
<g id="clust19" class="cluster">
<title>cluster_AppModule_imports</title>
<polygon fill="none" stroke="black" points="16,-78 16,-130 160,-130 160,-78 16,-78"/>
</g>
<g id="clust21" class="cluster">
<title>cluster_AppModule_bootstrap</title>
<polygon fill="none" stroke="black" points="775,-208 775,-260 845,-260 845,-208 775,-208"/>
</g>
<!-- AdminDashboard -->
<g id="node1" class="node">
<title>AdminDashboard</title>
<polygon fill="#ffffb3" stroke="black" points="1530.53,-122 1415.47,-122 1415.47,-86 1530.53,-86 1530.53,-122"/>
<text text-anchor="middle" x="1473" y="-99.8" font-family="Times,serif" font-size="14.00">AdminDashboard</text>
</g>
<!-- AppModule -->
<g id="node17" class="node">
<title>AppModule</title>
<polygon fill="#8dd3c7" stroke="black" points="851.66,-187 848.66,-191 827.66,-191 824.66,-187 768.34,-187 768.34,-151 851.66,-151 851.66,-187"/>
<text text-anchor="middle" x="810" y="-164.8" font-family="Times,serif" font-size="14.00">AppModule</text>
</g>
<!-- AdminDashboard&#45;&gt;AppModule -->
<g id="edge1" class="edge">
<title>AdminDashboard&#45;&gt;AppModule</title>
<path fill="none" stroke="black" d="M1473,-122.32C1473,-145.66 1473,-183 1473,-183 1473,-183 861.72,-183 861.72,-183"/>
<polygon fill="black" stroke="black" points="861.72,-179.5 851.72,-183 861.72,-186.5 861.72,-179.5"/>
</g>
<!-- App -->
<g id="node2" class="node">
<title>App</title>
<polygon fill="#ffffb3" stroke="black" points="1397,-122 1343,-122 1343,-86 1397,-86 1397,-122"/>
<text text-anchor="middle" x="1370" y="-99.8" font-family="Times,serif" font-size="14.00">App</text>
</g>
<!-- App&#45;&gt;AppModule -->
<g id="edge2" class="edge">
<title>App&#45;&gt;AppModule</title>
<path fill="none" stroke="black" d="M1370,-122.29C1370,-144.21 1370,-178 1370,-178 1370,-178 862.09,-178 862.09,-178"/>
<polygon fill="black" stroke="black" points="862.09,-174.5 852.09,-178 862.09,-181.5 862.09,-174.5"/>
</g>
<!-- Blog -->
<g id="node3" class="node">
<title>Blog</title>
<polygon fill="#ffffb3" stroke="black" points="1325,-122 1271,-122 1271,-86 1325,-86 1325,-122"/>
<text text-anchor="middle" x="1298" y="-99.8" font-family="Times,serif" font-size="14.00">Blog</text>
</g>
<!-- Blog&#45;&gt;AppModule -->
<g id="edge3" class="edge">
<title>Blog&#45;&gt;AppModule</title>
<path fill="none" stroke="black" d="M1298,-122.03C1298,-142.77 1298,-174 1298,-174 1298,-174 862.03,-174 862.03,-174"/>
<polygon fill="black" stroke="black" points="862.03,-170.5 852.03,-174 862.03,-177.5 862.03,-170.5"/>
</g>
<!-- Cart -->
<g id="node4" class="node">
<title>Cart</title>
<polygon fill="#ffffb3" stroke="black" points="1253,-122 1199,-122 1199,-86 1253,-86 1253,-122"/>
<text text-anchor="middle" x="1226" y="-99.8" font-family="Times,serif" font-size="14.00">Cart</text>
</g>
<!-- Cart&#45;&gt;AppModule -->
<g id="edge4" class="edge">
<title>Cart&#45;&gt;AppModule</title>
<path fill="none" stroke="black" d="M1226,-122.11C1226,-141.34 1226,-169 1226,-169 1226,-169 861.79,-169 861.79,-169"/>
<polygon fill="black" stroke="black" points="861.79,-165.5 851.79,-169 861.79,-172.5 861.79,-165.5"/>
</g>
<!-- Checkout -->
<g id="node5" class="node">
<title>Checkout</title>
<polygon fill="#ffffb3" stroke="black" points="1180.66,-122 1111.34,-122 1111.34,-86 1180.66,-86 1180.66,-122"/>
<text text-anchor="middle" x="1146" y="-99.8" font-family="Times,serif" font-size="14.00">Checkout</text>
</g>
<!-- Checkout&#45;&gt;AppModule -->
<g id="edge5" class="edge">
<title>Checkout&#45;&gt;AppModule</title>
<path fill="none" stroke="black" d="M1146,-122.3C1146,-140.27 1146,-165 1146,-165 1146,-165 861.88,-165 861.88,-165"/>
<polygon fill="black" stroke="black" points="861.88,-161.5 851.88,-165 861.88,-168.5 861.88,-161.5"/>
</g>
<!-- Contactus -->
<g id="node6" class="node">
<title>Contactus</title>
<polygon fill="#ffffb3" stroke="black" points="1092.99,-122 1021.01,-122 1021.01,-86 1092.99,-86 1092.99,-122"/>
<text text-anchor="middle" x="1057" y="-99.8" font-family="Times,serif" font-size="14.00">Contactus</text>
</g>
<!-- Contactus&#45;&gt;AppModule -->
<g id="edge6" class="edge">
<title>Contactus&#45;&gt;AppModule</title>
<path fill="none" stroke="black" d="M1057,-122.03C1057,-138.4 1057,-160 1057,-160 1057,-160 861.9,-160 861.9,-160"/>
<polygon fill="black" stroke="black" points="861.9,-156.5 851.9,-160 861.9,-163.5 861.9,-156.5"/>
</g>
<!-- Dashboard -->
<g id="node7" class="node">
<title>Dashboard</title>
<polygon fill="#ffffb3" stroke="black" points="1003.14,-122 926.86,-122 926.86,-86 1003.14,-86 1003.14,-122"/>
<text text-anchor="middle" x="965" y="-99.8" font-family="Times,serif" font-size="14.00">Dashboard</text>
</g>
<!-- Dashboard&#45;&gt;AppModule -->
<g id="edge7" class="edge">
<title>Dashboard&#45;&gt;AppModule</title>
<path fill="none" stroke="black" d="M965,-122.19C965,-137.18 965,-156 965,-156 965,-156 861.95,-156 861.95,-156"/>
<polygon fill="black" stroke="black" points="861.95,-152.5 851.95,-156 861.95,-159.5 861.95,-152.5"/>
</g>
<!-- Footer -->
<g id="node8" class="node">
<title>Footer</title>
<polygon fill="#ffffb3" stroke="black" points="909,-122 855,-122 855,-86 909,-86 909,-122"/>
<text text-anchor="middle" x="882" y="-99.8" font-family="Times,serif" font-size="14.00">Footer</text>
</g>
<!-- Footer&#45;&gt;AppModule -->
<g id="edge8" class="edge">
<title>Footer&#45;&gt;AppModule</title>
<path fill="none" stroke="black" d="M854.68,-104C848.86,-104 844.41,-104 844.41,-104 844.41,-104 844.41,-140.89 844.41,-140.89"/>
<polygon fill="black" stroke="black" points="840.91,-140.89 844.41,-150.89 847.91,-140.89 840.91,-140.89"/>
</g>
<!-- Home -->
<g id="node9" class="node">
<title>Home</title>
<polygon fill="#ffffb3" stroke="black" points="837,-122 783,-122 783,-86 837,-86 837,-122"/>
<text text-anchor="middle" x="810" y="-99.8" font-family="Times,serif" font-size="14.00">Home</text>
</g>
<!-- Home&#45;&gt;AppModule -->
<g id="edge9" class="edge">
<title>Home&#45;&gt;AppModule</title>
<path fill="none" stroke="black" d="M810,-122.11C810,-122.11 810,-140.99 810,-140.99"/>
<polygon fill="black" stroke="black" points="806.5,-140.99 810,-150.99 813.5,-140.99 806.5,-140.99"/>
</g>
<!-- Login -->
<g id="node10" class="node">
<title>Login</title>
<polygon fill="#ffffb3" stroke="black" points="765,-122 711,-122 711,-86 765,-86 765,-122"/>
<text text-anchor="middle" x="738" y="-99.8" font-family="Times,serif" font-size="14.00">Login</text>
</g>
<!-- Login&#45;&gt;AppModule -->
<g id="edge10" class="edge">
<title>Login&#45;&gt;AppModule</title>
<path fill="none" stroke="black" d="M765.32,-104C771.14,-104 775.59,-104 775.59,-104 775.59,-104 775.59,-140.89 775.59,-140.89"/>
<polygon fill="black" stroke="black" points="772.09,-140.89 775.59,-150.89 779.09,-140.89 772.09,-140.89"/>
</g>
<!-- NavAuth -->
<g id="node11" class="node">
<title>NavAuth</title>
<polygon fill="#ffffb3" stroke="black" points="692.82,-122 625.18,-122 625.18,-86 692.82,-86 692.82,-122"/>
<text text-anchor="middle" x="659" y="-99.8" font-family="Times,serif" font-size="14.00">NavAuth</text>
</g>
<!-- NavAuth&#45;&gt;AppModule -->
<g id="edge11" class="edge">
<title>NavAuth&#45;&gt;AppModule</title>
<path fill="none" stroke="black" d="M659,-122.19C659,-137.18 659,-156 659,-156 659,-156 758.34,-156 758.34,-156"/>
<polygon fill="black" stroke="black" points="758.34,-159.5 768.34,-156 758.34,-152.5 758.34,-159.5"/>
</g>
<!-- NavBlank -->
<g id="node12" class="node">
<title>NavBlank</title>
<polygon fill="#ffffb3" stroke="black" points="607.26,-122 534.74,-122 534.74,-86 607.26,-86 607.26,-122"/>
<text text-anchor="middle" x="571" y="-99.8" font-family="Times,serif" font-size="14.00">NavBlank</text>
</g>
<!-- NavBlank&#45;&gt;AppModule -->
<g id="edge12" class="edge">
<title>NavBlank&#45;&gt;AppModule</title>
<path fill="none" stroke="black" d="M571,-122.03C571,-138.4 571,-160 571,-160 571,-160 758.1,-160 758.1,-160"/>
<polygon fill="black" stroke="black" points="758.1,-163.5 768.1,-160 758.1,-156.5 758.1,-163.5"/>
</g>
<!-- Notfound -->
<g id="node13" class="node">
<title>Notfound</title>
<polygon fill="#ffffb3" stroke="black" points="516.66,-122 447.34,-122 447.34,-86 516.66,-86 516.66,-122"/>
<text text-anchor="middle" x="482" y="-99.8" font-family="Times,serif" font-size="14.00">Notfound</text>
</g>
<!-- Notfound&#45;&gt;AppModule -->
<g id="edge13" class="edge">
<title>Notfound&#45;&gt;AppModule</title>
<path fill="none" stroke="black" d="M482,-122.3C482,-140.27 482,-165 482,-165 482,-165 758.13,-165 758.13,-165"/>
<polygon fill="black" stroke="black" points="758.13,-168.5 768.13,-165 758.13,-161.5 758.13,-168.5"/>
</g>
<!-- Products -->
<g id="node14" class="node">
<title>Products</title>
<polygon fill="#ffffb3" stroke="black" points="429.49,-122 364.51,-122 364.51,-86 429.49,-86 429.49,-122"/>
<text text-anchor="middle" x="397" y="-99.8" font-family="Times,serif" font-size="14.00">Products</text>
</g>
<!-- Products&#45;&gt;AppModule -->
<g id="edge14" class="edge">
<title>Products&#45;&gt;AppModule</title>
<path fill="none" stroke="black" d="M397,-122.11C397,-141.34 397,-169 397,-169 397,-169 758.13,-169 758.13,-169"/>
<polygon fill="black" stroke="black" points="758.13,-172.5 768.13,-169 758.13,-165.5 758.13,-172.5"/>
</g>
<!-- Singleproduct -->
<g id="node15" class="node">
<title>Singleproduct</title>
<polygon fill="#ffffb3" stroke="black" points="346.05,-122 251.95,-122 251.95,-86 346.05,-86 346.05,-122"/>
<text text-anchor="middle" x="299" y="-99.8" font-family="Times,serif" font-size="14.00">Singleproduct</text>
</g>
<!-- Singleproduct&#45;&gt;AppModule -->
<g id="edge15" class="edge">
<title>Singleproduct&#45;&gt;AppModule</title>
<path fill="none" stroke="black" d="M299,-122.03C299,-142.77 299,-174 299,-174 299,-174 758.18,-174 758.18,-174"/>
<polygon fill="black" stroke="black" points="758.18,-177.5 768.18,-174 758.18,-170.5 758.18,-177.5"/>
</g>
<!-- register -->
<g id="node16" class="node">
<title>register</title>
<polygon fill="#ffffb3" stroke="black" points="233.98,-122 176.02,-122 176.02,-86 233.98,-86 233.98,-122"/>
<text text-anchor="middle" x="205" y="-99.8" font-family="Times,serif" font-size="14.00">register</text>
</g>
<!-- register&#45;&gt;AppModule -->
<g id="edge16" class="edge">
<title>register&#45;&gt;AppModule</title>
<path fill="none" stroke="black" d="M205,-122.29C205,-144.21 205,-178 205,-178 205,-178 757.94,-178 757.94,-178"/>
<polygon fill="black" stroke="black" points="757.94,-181.5 767.94,-178 757.94,-174.5 757.94,-181.5"/>
</g>
<!-- App  -->
<g id="node19" class="node">
<title>App </title>
<polygon fill="#80b1d3" stroke="black" points="837,-252 783,-252 783,-216 837,-216 837,-252"/>
<text text-anchor="middle" x="810" y="-229.8" font-family="Times,serif" font-size="14.00">App </text>
</g>
<!-- AppModule&#45;&gt;App  -->
<g id="edge18" class="edge">
<title>AppModule&#45;&gt;App </title>
<path fill="none" stroke="black" stroke-dasharray="1,5" d="M810,-187.11C810,-187.11 810,-205.99 810,-205.99"/>
<polygon fill="black" stroke="black" points="806.5,-205.99 810,-215.99 813.5,-205.99 806.5,-205.99"/>
</g>
<!-- AppRoutingModule -->
<g id="node18" class="node">
<title>AppRoutingModule</title>
<polygon fill="#8dd3c7" stroke="black" points="152.27,-122 149.27,-126 128.27,-126 125.27,-122 23.73,-122 23.73,-86 152.27,-86 152.27,-122"/>
<text text-anchor="middle" x="88" y="-99.8" font-family="Times,serif" font-size="14.00">AppRoutingModule</text>
</g>
<!-- AppRoutingModule&#45;&gt;AppModule -->
<g id="edge17" class="edge">
<title>AppRoutingModule&#45;&gt;AppModule</title>
<path fill="none" stroke="black" d="M88,-122.32C88,-145.66 88,-183 88,-183 88,-183 758.33,-183 758.33,-183"/>
<polygon fill="black" stroke="black" points="758.33,-186.5 768.33,-183 758.33,-179.5 758.33,-186.5"/>
</g>
</g>
</svg>
