<?xml version="1.0" encoding="UTF-8" standalone="no"?>
<!DOCTYPE svg PUBLIC "-//W3C//DTD SVG 1.1//EN"
 "http://www.w3.org/Graphics/SVG/1.1/DTD/svg11.dtd">
<!-- Generated by graphviz version 2.47.0 (20210316.0004)
 -->
<!-- Title: dependencies Pages: 1 -->
<svg width="1563pt" height="284pt"
 viewBox="0.00 0.00 1563.00 284.00" xmlns="http://www.w3.org/2000/svg" xmlns:xlink="http://www.w3.org/1999/xlink">
<g id="graph0" class="graph" transform="scale(1 1) rotate(0) translate(4 280)">
<title>dependencies</title>
<polygon fill="white" stroke="transparent" points="-4,4 -4,-280 1559,-280 1559,4 -4,4"/>
<text text-anchor="start" x="756.51" y="-42.4" font-family="Times-12" font-weight="bold" font-size="14.00">Legend</text>
<polygon fill="#ffffb3" stroke="transparent" points="543.5,-10 543.5,-30 563.5,-30 563.5,-10 543.5,-10"/>
<text text-anchor="start" x="567.13" y="-15.4" font-family="Times-12" font-size="14.00"> &#160;Declarations</text>
<polygon fill="#8dd3c7" stroke="transparent" points="656.5,-10 656.5,-30 676.5,-30 676.5,-10 656.5,-10"/>
<text text-anchor="start" x="680.23" y="-15.4" font-family="Times-12" font-size="14.00"> &#160;Module</text>
<polygon fill="#80b1d3" stroke="transparent" points="742.5,-10 742.5,-30 762.5,-30 762.5,-10 742.5,-10"/>
<text text-anchor="start" x="766.28" y="-15.4" font-family="Times-12" font-size="14.00"> &#160;Bootstrap</text>
<polygon fill="#fdb462" stroke="transparent" points="839.5,-10 839.5,-30 859.5,-30 859.5,-10 839.5,-10"/>
<text text-anchor="start" x="863.17" y="-15.4" font-family="Times-12" font-size="14.00"> &#160;Providers</text>
<polygon fill="#fb8072" stroke="transparent" points="935.5,-10 935.5,-30 955.5,-30 955.5,-10 935.5,-10"/>
<text text-anchor="start" x="959.23" y="-15.4" font-family="Times-12" font-size="14.00"> &#160;Exports</text>
<g id="clust1" class="cluster">
<title>cluster_AppModule</title>
<polygon fill="none" stroke="black" stroke-dasharray="1,5" points="8,-70 8,-268 1547,-268 1547,-70 8,-70"/>
</g>
<g id="clust19" class="cluster">
<title>cluster_AppModule_imports</title>
<polygon fill="none" stroke="black" points="1395,-78 1395,-130 1539,-130 1539,-78 1395,-78"/>
</g>
<g id="clust21" class="cluster">
<title>cluster_AppModule_bootstrap</title>
<polygon fill="none" stroke="black" points="695,-208 695,-260 765,-260 765,-208 695,-208"/>
</g>
<g id="clust2" class="cluster">
<title>cluster_AppModule_declarations</title>
<polygon fill="none" stroke="black" points="16,-78 16,-130 1387,-130 1387,-78 16,-78"/>
</g>
<!-- AdminDashboard -->
<g id="node1" class="node">
<title>AdminDashboard</title>
<polygon fill="#ffffb3" stroke="black" points="1378.53,-122 1263.47,-122 1263.47,-86 1378.53,-86 1378.53,-122"/>
<text text-anchor="middle" x="1321" y="-99.8" font-family="Times,serif" font-size="14.00">AdminDashboard</text>
</g>
<!-- AppModule -->
<g id="node17" class="node">
<title>AppModule</title>
<polygon fill="#8dd3c7" stroke="black" points="771.66,-187 768.66,-191 747.66,-191 744.66,-187 688.34,-187 688.34,-151 771.66,-151 771.66,-187"/>
<text text-anchor="middle" x="730" y="-164.8" font-family="Times,serif" font-size="14.00">AppModule</text>
</g>
<!-- AdminDashboard&#45;&gt;AppModule -->
<g id="edge1" class="edge">
<title>AdminDashboard&#45;&gt;AppModule</title>
<path fill="none" stroke="black" d="M1321,-122.29C1321,-144.21 1321,-178 1321,-178 1321,-178 782.03,-178 782.03,-178"/>
<polygon fill="black" stroke="black" points="782.03,-174.5 772.03,-178 782.03,-181.5 782.03,-174.5"/>
</g>
<!-- App -->
<g id="node2" class="node">
<title>App</title>
<polygon fill="#ffffb3" stroke="black" points="1245,-122 1191,-122 1191,-86 1245,-86 1245,-122"/>
<text text-anchor="middle" x="1218" y="-99.8" font-family="Times,serif" font-size="14.00">App</text>
</g>
<!-- App&#45;&gt;AppModule -->
<g id="edge2" class="edge">
<title>App&#45;&gt;AppModule</title>
<path fill="none" stroke="black" d="M1218,-122.03C1218,-142.77 1218,-174 1218,-174 1218,-174 782.03,-174 782.03,-174"/>
<polygon fill="black" stroke="black" points="782.03,-170.5 772.03,-174 782.03,-177.5 782.03,-170.5"/>
</g>
<!-- Blog -->
<g id="node3" class="node">
<title>Blog</title>
<polygon fill="#ffffb3" stroke="black" points="1173,-122 1119,-122 1119,-86 1173,-86 1173,-122"/>
<text text-anchor="middle" x="1146" y="-99.8" font-family="Times,serif" font-size="14.00">Blog</text>
</g>
<!-- Blog&#45;&gt;AppModule -->
<g id="edge3" class="edge">
<title>Blog&#45;&gt;AppModule</title>
<path fill="none" stroke="black" d="M1146,-122.11C1146,-141.34 1146,-169 1146,-169 1146,-169 781.79,-169 781.79,-169"/>
<polygon fill="black" stroke="black" points="781.79,-165.5 771.79,-169 781.79,-172.5 781.79,-165.5"/>
</g>
<!-- Cart -->
<g id="node4" class="node">
<title>Cart</title>
<polygon fill="#ffffb3" stroke="black" points="1101,-122 1047,-122 1047,-86 1101,-86 1101,-122"/>
<text text-anchor="middle" x="1074" y="-99.8" font-family="Times,serif" font-size="14.00">Cart</text>
</g>
<!-- Cart&#45;&gt;AppModule -->
<g id="edge4" class="edge">
<title>Cart&#45;&gt;AppModule</title>
<path fill="none" stroke="black" d="M1074,-122.3C1074,-140.27 1074,-165 1074,-165 1074,-165 781.84,-165 781.84,-165"/>
<polygon fill="black" stroke="black" points="781.84,-161.5 771.84,-165 781.84,-168.5 781.84,-161.5"/>
</g>
<!-- Checkout -->
<g id="node5" class="node">
<title>Checkout</title>
<polygon fill="#ffffb3" stroke="black" points="1028.66,-122 959.34,-122 959.34,-86 1028.66,-86 1028.66,-122"/>
<text text-anchor="middle" x="994" y="-99.8" font-family="Times,serif" font-size="14.00">Checkout</text>
</g>
<!-- Checkout&#45;&gt;AppModule -->
<g id="edge5" class="edge">
<title>Checkout&#45;&gt;AppModule</title>
<path fill="none" stroke="black" d="M994,-122.03C994,-138.4 994,-160 994,-160 994,-160 781.83,-160 781.83,-160"/>
<polygon fill="black" stroke="black" points="781.83,-156.5 771.83,-160 781.83,-163.5 781.83,-156.5"/>
</g>
<!-- Contactus -->
<g id="node6" class="node">
<title>Contactus</title>
<polygon fill="#ffffb3" stroke="black" points="940.99,-122 869.01,-122 869.01,-86 940.99,-86 940.99,-122"/>
<text text-anchor="middle" x="905" y="-99.8" font-family="Times,serif" font-size="14.00">Contactus</text>
</g>
<!-- Contactus&#45;&gt;AppModule -->
<g id="edge6" class="edge">
<title>Contactus&#45;&gt;AppModule</title>
<path fill="none" stroke="black" d="M905,-122.19C905,-137.18 905,-156 905,-156 905,-156 781.92,-156 781.92,-156"/>
<polygon fill="black" stroke="black" points="781.92,-152.5 771.92,-156 781.92,-159.5 781.92,-152.5"/>
</g>
<!-- Dashboard -->
<g id="node7" class="node">
<title>Dashboard</title>
<polygon fill="#ffffb3" stroke="black" points="851.14,-122 774.86,-122 774.86,-86 851.14,-86 851.14,-122"/>
<text text-anchor="middle" x="813" y="-99.8" font-family="Times,serif" font-size="14.00">Dashboard</text>
</g>
<!-- Dashboard&#45;&gt;AppModule -->
<g id="edge7" class="edge">
<title>Dashboard&#45;&gt;AppModule</title>
<path fill="none" stroke="black" d="M774.72,-104C768.7,-104 764.41,-104 764.41,-104 764.41,-104 764.41,-140.89 764.41,-140.89"/>
<polygon fill="black" stroke="black" points="760.91,-140.89 764.41,-150.89 767.91,-140.89 760.91,-140.89"/>
</g>
<!-- Footer -->
<g id="node8" class="node">
<title>Footer</title>
<polygon fill="#ffffb3" stroke="black" points="757,-122 703,-122 703,-86 757,-86 757,-122"/>
<text text-anchor="middle" x="730" y="-99.8" font-family="Times,serif" font-size="14.00">Footer</text>
</g>
<!-- Footer&#45;&gt;AppModule -->
<g id="edge8" class="edge">
<title>Footer&#45;&gt;AppModule</title>
<path fill="none" stroke="black" d="M730,-122.11C730,-122.11 730,-140.99 730,-140.99"/>
<polygon fill="black" stroke="black" points="726.5,-140.99 730,-150.99 733.5,-140.99 726.5,-140.99"/>
</g>
<!-- Home -->
<g id="node9" class="node">
<title>Home</title>
<polygon fill="#ffffb3" stroke="black" points="685,-122 631,-122 631,-86 685,-86 685,-122"/>
<text text-anchor="middle" x="658" y="-99.8" font-family="Times,serif" font-size="14.00">Home</text>
</g>
<!-- Home&#45;&gt;AppModule -->
<g id="edge9" class="edge">
<title>Home&#45;&gt;AppModule</title>
<path fill="none" stroke="black" d="M685.32,-104C691.14,-104 695.59,-104 695.59,-104 695.59,-104 695.59,-140.89 695.59,-140.89"/>
<polygon fill="black" stroke="black" points="692.09,-140.89 695.59,-150.89 699.09,-140.89 692.09,-140.89"/>
</g>
<!-- Login -->
<g id="node10" class="node">
<title>Login</title>
<polygon fill="#ffffb3" stroke="black" points="613,-122 559,-122 559,-86 613,-86 613,-122"/>
<text text-anchor="middle" x="586" y="-99.8" font-family="Times,serif" font-size="14.00">Login</text>
</g>
<!-- Login&#45;&gt;AppModule -->
<g id="edge10" class="edge">
<title>Login&#45;&gt;AppModule</title>
<path fill="none" stroke="black" d="M586,-122.19C586,-137.18 586,-156 586,-156 586,-156 677.96,-156 677.96,-156"/>
<polygon fill="black" stroke="black" points="677.96,-159.5 687.96,-156 677.96,-152.5 677.96,-159.5"/>
</g>
<!-- NavAuth -->
<g id="node11" class="node">
<title>NavAuth</title>
<polygon fill="#ffffb3" stroke="black" points="540.82,-122 473.18,-122 473.18,-86 540.82,-86 540.82,-122"/>
<text text-anchor="middle" x="507" y="-99.8" font-family="Times,serif" font-size="14.00">NavAuth</text>
</g>
<!-- NavAuth&#45;&gt;AppModule -->
<g id="edge11" class="edge">
<title>NavAuth&#45;&gt;AppModule</title>
<path fill="none" stroke="black" d="M507,-122.03C507,-138.4 507,-160 507,-160 507,-160 678.32,-160 678.32,-160"/>
<polygon fill="black" stroke="black" points="678.32,-163.5 688.32,-160 678.32,-156.5 678.32,-163.5"/>
</g>
<!-- NavBlank -->
<g id="node12" class="node">
<title>NavBlank</title>
<polygon fill="#ffffb3" stroke="black" points="455.26,-122 382.74,-122 382.74,-86 455.26,-86 455.26,-122"/>
<text text-anchor="middle" x="419" y="-99.8" font-family="Times,serif" font-size="14.00">NavBlank</text>
</g>
<!-- NavBlank&#45;&gt;AppModule -->
<g id="edge12" class="edge">
<title>NavBlank&#45;&gt;AppModule</title>
<path fill="none" stroke="black" d="M419,-122.3C419,-140.27 419,-165 419,-165 419,-165 678.06,-165 678.06,-165"/>
<polygon fill="black" stroke="black" points="678.06,-168.5 688.06,-165 678.06,-161.5 678.06,-168.5"/>
</g>
<!-- Notfound -->
<g id="node13" class="node">
<title>Notfound</title>
<polygon fill="#ffffb3" stroke="black" points="364.66,-122 295.34,-122 295.34,-86 364.66,-86 364.66,-122"/>
<text text-anchor="middle" x="330" y="-99.8" font-family="Times,serif" font-size="14.00">Notfound</text>
</g>
<!-- Notfound&#45;&gt;AppModule -->
<g id="edge13" class="edge">
<title>Notfound&#45;&gt;AppModule</title>
<path fill="none" stroke="black" d="M330,-122.11C330,-141.34 330,-169 330,-169 330,-169 678.32,-169 678.32,-169"/>
<polygon fill="black" stroke="black" points="678.33,-172.5 688.32,-169 678.32,-165.5 678.33,-172.5"/>
</g>
<!-- Products -->
<g id="node14" class="node">
<title>Products</title>
<polygon fill="#ffffb3" stroke="black" points="277.49,-122 212.51,-122 212.51,-86 277.49,-86 277.49,-122"/>
<text text-anchor="middle" x="245" y="-99.8" font-family="Times,serif" font-size="14.00">Products</text>
</g>
<!-- Products&#45;&gt;AppModule -->
<g id="edge14" class="edge">
<title>Products&#45;&gt;AppModule</title>
<path fill="none" stroke="black" d="M245,-122.03C245,-142.77 245,-174 245,-174 245,-174 678.23,-174 678.23,-174"/>
<polygon fill="black" stroke="black" points="678.23,-177.5 688.23,-174 678.23,-170.5 678.23,-177.5"/>
</g>
<!-- Singleproduct -->
<g id="node15" class="node">
<title>Singleproduct</title>
<polygon fill="#ffffb3" stroke="black" points="194.05,-122 99.95,-122 99.95,-86 194.05,-86 194.05,-122"/>
<text text-anchor="middle" x="147" y="-99.8" font-family="Times,serif" font-size="14.00">Singleproduct</text>
</g>
<!-- Singleproduct&#45;&gt;AppModule -->
<g id="edge15" class="edge">
<title>Singleproduct&#45;&gt;AppModule</title>
<path fill="none" stroke="black" d="M147,-122.29C147,-144.21 147,-178 147,-178 147,-178 678.07,-178 678.07,-178"/>
<polygon fill="black" stroke="black" points="678.07,-181.5 688.07,-178 678.07,-174.5 678.07,-181.5"/>
</g>
<!-- register -->
<g id="node16" class="node">
<title>register</title>
<polygon fill="#ffffb3" stroke="black" points="81.98,-122 24.02,-122 24.02,-86 81.98,-86 81.98,-122"/>
<text text-anchor="middle" x="53" y="-99.8" font-family="Times,serif" font-size="14.00">register</text>
</g>
<!-- register&#45;&gt;AppModule -->
<g id="edge16" class="edge">
<title>register&#45;&gt;AppModule</title>
<path fill="none" stroke="black" d="M53,-122.32C53,-145.66 53,-183 53,-183 53,-183 678.16,-183 678.16,-183"/>
<polygon fill="black" stroke="black" points="678.16,-186.5 688.16,-183 678.16,-179.5 678.16,-186.5"/>
</g>
<!-- App  -->
<g id="node19" class="node">
<title>App </title>
<polygon fill="#80b1d3" stroke="black" points="757,-252 703,-252 703,-216 757,-216 757,-252"/>
<text text-anchor="middle" x="730" y="-229.8" font-family="Times,serif" font-size="14.00">App </text>
</g>
<!-- AppModule&#45;&gt;App  -->
<g id="edge18" class="edge">
<title>AppModule&#45;&gt;App </title>
<path fill="none" stroke="black" stroke-dasharray="1,5" d="M730,-187.11C730,-187.11 730,-205.99 730,-205.99"/>
<polygon fill="black" stroke="black" points="726.5,-205.99 730,-215.99 733.5,-205.99 726.5,-205.99"/>
</g>
<!-- AppRoutingModule -->
<g id="node18" class="node">
<title>AppRoutingModule</title>
<polygon fill="#8dd3c7" stroke="black" points="1531.27,-122 1528.27,-126 1507.27,-126 1504.27,-122 1402.73,-122 1402.73,-86 1531.27,-86 1531.27,-122"/>
<text text-anchor="middle" x="1467" y="-99.8" font-family="Times,serif" font-size="14.00">AppRoutingModule</text>
</g>
<!-- AppRoutingModule&#45;&gt;AppModule -->
<g id="edge17" class="edge">
<title>AppRoutingModule&#45;&gt;AppModule</title>
<path fill="none" stroke="black" d="M1467,-122.32C1467,-145.66 1467,-183 1467,-183 1467,-183 781.74,-183 781.74,-183"/>
<polygon fill="black" stroke="black" points="781.74,-179.5 771.74,-183 781.74,-186.5 781.74,-179.5"/>
</g>
</g>
</svg>
